<svg xmlns="http://www.w3.org/2000/svg" width="240" height="324" fill="none"><path fill="#fff" fill-rule="evenodd" d="M181.079 176.597c-1.841-7.143-3.535-10.172-6.806-12.655-3.06-2.322-7.526-4.273-14.043-5.698-6.788-1.187-6.981-4.716-8.683-10.387-.496-1.705-2.957-2.159-4.019-.93a4.964 4.964 0 0 0-.467-.443c.144-.813-1.039-3.144-1-3.922.413-8.118-2.242-12.195-8.868-13.71-1.441-.33-11.23-.524-12.635-.136-6.143 1.699-12.19 7.092-11.265 13.589-1.928 2.521-3.815 4.059-6.79 4.871-6.62.841-13.24 1.589-19.862 2.229-12.963 2.033-25.116 8.896-33.423 18.904-.766.924-.987 2.178-.311 3.163-.53 2.27-3.511 7.774-1.165 9.33-3.858 9.228-12.735 27.066-12.752 32.163-.07 21.408 2.243 49.275 23.365 61.122.845.832.966 1.752 1.332 2.989.929 3.898 4.302 6.683 7.993 6.456 18.184.404 35.796-1.815 53.98-1.922 8.019-.047 17.663 1.15 24.63 1.947 6.966.798 13.998.093 20.683-1.947.564.888 1.704 1.405 2.86 1.15 6.93-1.377 12.535-5.649 17.416-10.318 1.491-2.714 7.317-10.447 5.001-13.138 2.099-8.876 1.99-18.412-1.74-26.863.529-1.549-.435-3.252 0-4.851.315-1.158 1.121-1.637 1.527-2.783.571-1.613-.05-3.778-.693-5.424-.263-.82.485-1.703.693-2.54.986-3.949-1.272-3.601-2.901-6.241.025-.008.448-1.892.446-1.883.249-1.345-.375-3.069-.92-4.192-.368-.759-1.157-1.234-1.941-1.147.789-2.68 1.788-4.91 2.861-7.493 1.899-4.551 4.302-8.91 7.028-13.03 1.116-1.687-.383-3.641-2.19-3.756a110.421 110.421 0 0 1-17.341-2.504Z" clip-rule="evenodd"/><path fill="#000" fill-rule="evenodd" d="M164.013 211.018c-2.338-.918-4.857-1.425-7.388-1.621 1.363-.239 2.73-.47 4.108-.588.961-.082 1.852-.074 2.575.655.482.486.708 1.112 1.025 1.687a6.508 6.508 0 0 0-.32-.133Zm25.103-8.577c-3.83.195-7.665 1.106-11.129 2.756-1.418.676-2.703 1.653-3.079 3.259-.19.82-.143 1.668-.042 2.496.076.628.095 1.429.64 1.854.093.072.193.127.296.167a25.986 25.986 0 0 0-3.577 1.984c-.988.653-2.005 1.659-2.461 2.794a10.73 10.73 0 0 0-.114-.363c-.778-2.299-1.975-4.183-3.862-5.449.334-.15.564-.505.456-.995-.448-2.048-2.339-3.828-4.474-3.701-2.339.137-4.851.989-6.966 2.065a35.231 35.231 0 0 0-2.301.027c-.131.005-.124.182 0 .197.617.078 1.234.165 1.851.266 1.466.235 2.928.533 4.358.903 1.716.444 3.491.889 5.094 1.665 3.11 1.507 5.035 5.447 4.64 8.875-.066.562-.283 2.261-1.063 2.086-.659-.148-.921-1.524-1.151-2.033-.617-1.353-1.729-2.237-3.062-2.835-1.565-.703-3.24-1.179-4.863-1.732-.919-.315-1.838-.631-2.759-.943-.942-.323-1.838-.77-2.842-.543-.606.137-.676.86-.336 1.274.518.632 1.287.818 2.033 1.078l2.949 1.027c1.519.528 3.11.974 4.591 1.621l-.047.106c-.12-.034-.262.086-.238.234.222 1.368.53 2.949.187 4.318-.27 1.087-1.223 2.289-2.461 1.97a.659.659 0 0 0 .136-.767c-.491-1.048-6.913-5.187-7.486-3.65-.019.055.04.095.087.087.488-.102 1.306.731 1.696.995.564.381 1.137.752 1.695 1.143a36.6 36.6 0 0 1 1.787 1.338c.457.364.801.742 1.325.926a1.104 1.104 0 0 0-.585.685c-.237.809-.693 1.496-1.486 1.853-.83.372-1.766.138-2.64.229-1.192.12-2.231.687-3.1 1.496-1.823 1.703-2.738 4.705-5.288 5.51-1.523.48-3.213.177-4.755-.04-1.722-.244-3.4-.436-5.134-.182-1.661.243-3.23.818-4.747 1.519-1.422.658-2.994 1.402-4.255 2.382-.26-.801-.522-1.593-.721-2.411a28.76 28.76 0 0 1-.784-5.891c-.057-1.891.049-3.791.212-5.674.08-.941.207-1.877.287-2.818.021-.236.063-.49.095-.743 2.252-1.33 4.618-2.348 7.003-3.397l.02-.008c.074-.034.145-.066.219-.097a.035.035 0 0 0-.008-.013c.273-.167.463-.389.577-.639 3.437-2.28 6.31-5.393 8.453-9.024.897-1.522 1.762-3.101 2.936-4.434 1.251-1.423 2.736-2.268 4.574-2.708 2.149-.515 4.363-.824 6.564-.999 1.202-.095 2.546-.243 3.856-.237.913.006 1.806.084 2.626.311 1.215.333 1.925 1.257 2.687 2.191.729.897 1.454 1.795 2.134 2.729.644.885 1.253 1.8 1.781 2.76.317.575.611 1.167.858 1.777.086.216.2.461.253.685.053.226-.044.465.209.465-1.045.015-1.035 1.687.005 1.625 4.069-.236-1.76-8.183-2.612-9.29-1.206-1.569-2.45-3.615-4.381-4.344-.028-.01-.057-.021-.085-.029.562-.533 1.006-1.171 1.43-1.82.438-.668.959-1.433 1.103-2.226.091-.504-.536-.792-.834-.35-.433.644-.642 1.46-.966 2.168-.329.719-.731 1.397-1.048 2.122-.762-.235-1.586-.342-2.425-.378 1.058-1.433 2.867-4.198 3.085-4.553a106.264 106.264 0 0 0 2.864-5.036c.985-1.839 1.828-3.754 2.77-5.614.535-1.054 1.073-2.117 1.667-3.14a9.19 9.19 0 0 1 .674-1.021c.048-.063.11-.116.167-.176l.171-.097c.342-.196.463-.653.703-.942.385-.467.837-.522 1.416-.529 1.234-.013 2.472.036 3.703.07a218.393 218.393 0 0 1 7.067.311c2.631.156 5.259.361 7.881.613 2.319.221 4.639.583 6.961.756-3.144 7.472-6.63 14.808-10.576 21.888a.915.915 0 0 0-.089.215Zm-17.442 19.248a8.755 8.755 0 0 0-1.458.852 8.7 8.7 0 0 0 .074-1.598c.378.405.862.638 1.384.746Zm21.645-12.852a.106.106 0 0 0-.087.059c-.702 1.447-.408 3.064.737 4.199.6.592 1.908 1.26 1.866 2.232-.036.786-.892 1.446-1.257 2.095-.34.604-.467 1.268-.195 1.923.349.839 1.323 1.173 1.657 1.997.422 1.046-.264 2.308-.746 3.219-.448.843-1.027 1.687-1.411 2.578-2.576 1.334-4.881 3.38-6.862 5.458-2.17 2.272-4.031 4.945-7.477 4.878a.863.863 0 0 0-.763.426c-.959.045-1.92.064-2.879.068-1.686.008-3.372-.008-5.056-.061-.118-.408-.032-.962-.038-1.306-.021-1.11-.032-2.217-.078-3.327l-.038-.928c.606 1.097 1.789 1.596 3.137 1.52 2.168-.127 4.348-.482 6.494-.801 1.131-.167 2.259-.357 3.385-.56.925-.165 2.231-.123 2.877-.865.153-.173.161-.49-.078-.606-.64-.315-1.043-.14-1.747-.004a157.337 157.337 0 0 1-7.555 1.261 94.06 94.06 0 0 1-2.844.368c-.828.089-1.761.209-2.429-.414-1.346-1.26-.592-3.371.26-4.644a.074.074 0 0 0 .01-.069c.803-.189 1.604-.408 2.402-.563a97.99 97.99 0 0 1 4.631-.767c3.182-.454 6.385-.754 9.583-1.056.793-.077.801-1.323 0-1.249-4.595.42-9.213.819-13.747 1.705-1.136.22-2.265.469-3.386.75-.531.131-1.099.336-1.655.343-.033 0-.067 0-.101-.003-1.088-.033-1.246-.965-.649-1.741.074-.095.15-.19.229-.281 1.056-1.26 2.372-2.101 3.728-2.972 1.52-.207 3.034-.668 4.522-1.006 3.671-.837 7.343-1.674 11.017-2.508.72-.165.414-1.273-.306-1.11l-8.366 1.896-4.082.926c-.815.183-1.834.553-2.793.687-.473.065-.932.073-1.346-.024-1.337-.317-1.405-1.989-.828-2.982.647-1.116 1.868-1.813 2.952-2.445 1.878-1.097 3.876-1.886 5.828-2.794l1.04-.229c2.015-.444 4.318-.661 6.215-1.475.569-.241.258-1.137-.304-1.124-1.472.032-3.013.556-4.451.866-1.557.338-3.116.674-4.674 1.01-.156.034-1.081.33-1.221.265-.088-.043-.12-.351-.15-.554-.095-.668-.164-1.369-.061-2.04.228-1.502 1.481-2.208 2.749-2.785 2.822-1.283 5.917-2.086 8.998-2.407a29.753 29.753 0 0 1 2.133-.144c.839-.026 1.53-.173 1.955.653.667 1.302 1.035 2.976 1.255 4.462Zm-3.921 47.204c-.615-2.128-.447-4.4-.869-6.571a35.575 35.575 0 0 0-.838-3.323c-.261-.883-.698-1.823-.747-2.744-.003-.062.069-.097.119-.069.868.497 1.534 1.572 2.029 2.415a16.229 16.229 0 0 1 1.41 3.177c.727 2.214 1.324 4.884.386 7.115-.279.664-1.259.797-1.49 0Zm-19.006-28.185c.52-.051 1.039-.15 1.559-.266-.581.566-1.118 1.249-1.416 2.006a31.478 31.478 0 0 0-.183-1.738c.012 0 .027 0 .04-.002Zm-4.995 44.293c-.916-.64-1.584-1.534-2.362-2.324-.764-.776.431-1.972 1.196-1.195.663.673 1.238 1.514 2.019 2.059.375.262.549.735.303 1.157-.217.371-.781.564-1.156.303Zm-5.111-24.59c1.673-.724 3.318-1.512 5.069-2.033 1.047-.312 1.49 1.32.45 1.63-1.613.48-3.125 1.196-4.666 1.863-.989.427-1.849-1.03-.853-1.46Zm-17.669-.507c-.409-1.009 1.227-1.445 1.63-.449.464 1.146.996 2.263 1.46 3.409.409 1.009-1.226 1.445-1.629.449-.464-1.146-.997-2.262-1.461-3.409Zm-17.439 20.167c-.272.364-.726.561-1.156.304-.359-.216-.579-.789-.303-1.157.806-1.074 1.622-2.135 2.566-3.093.765-.776 1.96.42 1.195 1.196-.843.855-1.582 1.791-2.302 2.75Zm-2.493-113.155c.776.53 1.455 1.174 2.118 1.837.771.77-.425 1.966-1.195 1.195-.559-.558-1.122-1.125-1.776-1.572-.378-.258-.548-.738-.303-1.157.219-.374.779-.56 1.156-.303Zm25.371 27.209c-.438.878-.833 1.74-.858 2.738-.027 1.088-1.717 1.089-1.69 0 .032-1.307.514-2.44 1.089-3.592.486-.975 1.943-.117 1.459.854Zm9.309-21.852c.909-.606 1.754.859.853 1.46l-2.19 1.461c-.908.605-1.754-.86-.853-1.46l2.19-1.461Zm-40.376 38.206c-.155 1.075-1.784.615-1.63-.449.238-1.645.528-3.268.974-4.87.292-1.048 1.921-.6 1.629.45-.446 1.602-.736 3.225-.973 4.869Zm-5.926 19.368c-1.088-.023-1.088-1.714 0-1.69.985.02 1.952.28 2.902.517 1.056.264.606 1.894-.449 1.63-.803-.201-1.621-.439-2.453-.457Zm-2.187 39.016c-.374.182-.758.345-1.135.518a1566.427 1566.427 0 0 0-6.99 3.217c-3.148 1.458-6.32 2.864-9.476 4.306-3.218 1.47-6.427 2.96-9.632 4.458-1.51.705-3.032 1.385-4.55 2.072-1.299.587-2.904 1.613-4.33 1.71-.073.005-.097-.088-.056-.135.54-.613 1.398-.969 2.106-1.368.723-.407 1.46-.789 2.192-1.178 1.529-.81 3.059-1.613 4.602-2.395a2462.83 2462.83 0 0 1 9.272-4.663c3.155-1.58 6.306-3.171 9.488-4.695a1427.073 1427.073 0 0 1 6.938-3.304c.352-.166.699-.346 1.059-.495.477-.197.84-.157 1.332-.279.803-.198 1.15.823.534 1.268-.508.366-.775.68-1.354.963Zm-11.284 17.337c-.173-.422.19-.935.59-1.04.48-.127.865.165 1.04.59a9.532 9.532 0 0 0 1.973 3.036c.759.781-.435 1.977-1.195 1.196-1.065-1.096-1.83-2.375-2.408-3.782Zm-8.3-27.14c-.771-.771.424-1.966 1.194-1.195l2.19 2.191c.771.771-.424 1.966-1.194 1.195l-2.19-2.191Zm-22.473-3.572c-1.575.462-3.412.887-4.486 2.23-.052.066-.14-.018-.108-.084 1.374-2.85 5.316-3.85 8.045-4.849 1.93-.706 3.911-1.292 5.908-1.816-.2-2.279.351-4.722.543-6.99.204-2.422.37-4.85.456-7.279.087-2.478.108-4.973.026-7.452-.08-2.469-.401-4.909-.541-7.37-.014-.238.317-.249.389-.053.829 2.284 1.183 4.814 1.453 7.223.278 2.481.37 4.955.335 7.45-.037 2.566-.186 5.126-.39 7.683-.097 1.212-.21 2.423-.316 3.634-.081.925-.119 1.842-.307 2.737 1.204-.296 2.412-.575 3.615-.847 3.838-.867 7.692-1.671 11.514-2.608 1.876-.459 3.725-1.01 5.593-1.499 1.758-.461 3.615-1.019 5.42-1.225.644-.073.726.809.3 1.108-1.468 1.031-3.417 1.748-5.112 2.325-1.7.579-3.47.996-5.213 1.425-3.636.894-7.306 1.626-10.971 2.388-3.66.761-7.327 1.516-10.946 2.455-1.743.452-3.48.906-5.207 1.414Zm-8.63-45.234c-.94.553-1.79-.909-.853-1.46 1.227-.72 2.535-1.262 3.853-1.79 1.011-.405 1.447 1.231.45 1.631-1.186.474-2.347.972-3.45 1.619Zm-3.407 62.816c-.944.548-1.794-.914-.853-1.459 1.321-.767 2.768-1.278 4.137-1.948.974-.478 1.83.981.853 1.46-1.369.67-2.816 1.181-4.137 1.947Zm-1.533-35.657c.912.867 2.13 1.275 3.278 1.73 1.001.397.562 2.031-.45 1.631-1.43-.568-2.886-1.086-4.023-2.166-.79-.751.407-1.945 1.195-1.195Zm10.093-48.426c1.003.394.563 2.028-.45 1.631-1.123-.441-2.284-.777-3.407-1.218-1.003-.393-.564-2.028.45-1.63 1.123.441 2.283.776 3.407 1.217Zm17.804-19.234c1.065-.18 1.52 1.449.45 1.63-1.329.224-2.636.487-3.895.974-1.017.394-1.453-1.242-.45-1.63 1.26-.488 2.567-.75 3.895-.974Zm5.882 46.831c-.977-.48-.12-1.938.853-1.46 1.025.504 2.088.894 3.206 1.132 1.065.227.611 1.857-.45 1.631-1.258-.268-2.456-.736-3.609-1.303Zm5.557-26.379c1.052-.289 1.497 1.343.45 1.63-1.844.505-3.742.768-5.599 1.217-1.058.257-1.506-1.374-.45-1.63 1.858-.45 3.756-.712 5.599-1.217Zm23.57-8.279c1.07.198.614 1.828-.449 1.631-1.132-.21-2.279-.213-3.426-.214-1.09 0-1.088-1.691 0-1.69 1.303 0 2.59.036 3.875.273Zm76.872 8.834a216.99 216.99 0 0 0-8.297-.634l-.384-.022c-.015-.029-.034-.057-.053-.086-.904-1.328-1.57-2.655-2.146-4.155-.552-1.429-1.086-2.902-1.936-4.191-.968-1.469-2.276-2.619-3.709-3.615-.87.585-1.676 1.27-2.415 1.996-.776.763-1.972-.432-1.195-1.196a18.56 18.56 0 0 1 2.096-1.779c-.854-.52-1.726-1.008-2.577-1.493a127.75 127.75 0 0 0-9.783-5.041c-1.549-.717-3.117-1.353-4.695-1.997-.849-.347-1.688-.793-2.537-1.194.061-.601-.118-1.273-.579-1.668-.34-.29-.604-.397-1.01-.602-.091-.032-.146-.051-.171-.062.019.005.074.021.165.051.215.1.232.07.05-.087-.01-.342-.684-1.065-.838-1.418-.537-1.211-.704-2.492-1.496-3.595a4.16 4.16 0 0 0-4.635-1.579c-.178-1.828-.224-3.736-.913-5.368-.019-.044-.08-.063-.108-.015-.718 1.224-.779 2.587-.834 3.999a23.635 23.635 0 0 0 .171 3.997 6.9 6.9 0 0 1-.338.243 7.417 7.417 0 0 1-1.749.841c-1.175.389-2.407.558-3.638.617-3.18.152-6.457-.169-9.583-.714-3.163-.552-8.012-1.38-10.826-2.964-1.857-1.043-3.57-2.318-5.307-3.552.63-2.029.79-4.21.156-5.924-.076-.205-.397-.244-.458 0-.397 1.635-.513 3.28-1.042 4.897l-.025.071c-.165-.111-.329-.222-.494-.331-.381-.252-.898-.064-1.126.295-3.649 5.751-9.427 6.081-15.495 7.108-6.64 1.125-13.314 2.338-19.698 4.538-6.106 2.105-11.941 5.17-16.564 9.748a38.448 38.448 0 0 0-2.948 3.293c.893.113 1.78.288 2.654.563 1.036.326.591 1.958-.449 1.631-1.124-.354-2.261-.529-3.41-.616-3.14 4.299-5.59 9.173-7.707 13.97-4.062 9.198-6.706 18.994-7.923 28.967.668-.4 1.348-.782 2.045-1.137.969-.492 1.823.967.853 1.46a35.128 35.128 0 0 0-3.135 1.807 105.557 105.557 0 0 0-.51 13.145c.247 10.458 1.658 21.222 4.85 31.2 1.566 4.897 3.64 9.754 6.731 13.892 1.399 1.874 2.987 3.565 4.86 4.975a19.292 19.292 0 0 0 2.877 1.811c1.303.668 3.002.888 4.126 1.833.37.311.655.72.87 1.183-.125.879-.14 1.761.102 2.64a.941.941 0 0 0 .538.607c.005.076.005.15.005.221 0 .034.05.043.057.009l.031-.199a.798.798 0 0 0 .258.041c3.21.012 6.422-.067 9.636-.176-.249-.761-.518-1.516-.776-2.278-.351-1.034 1.282-1.474 1.63-.449.302.89.618 1.773.899 2.666 3.443-.128 6.885-.282 10.32-.395 7.309-.244 14.614-.324 21.924-.478 11.352-.241 22.786-.734 34.155-.252.393-.834.833-1.65 1.25-2.473.493-.972 1.95-.116 1.46.853-.29.572-.591 1.137-.876 1.708 2.303.12 4.603.278 6.898.494 3.917.367 7.796 1.02 11.709 1.426 3.978.414 7.87.341 11.816-.317.71-.118 1.128-.547 1.301-1.08.007-.002.011-.006.015-.013.203-.236.393-.433.589-.604a4.16 4.16 0 0 1 .787-.395 8.086 8.086 0 0 1 1.721-.427c.647-.097 1.302-.106 1.948-.186.545-.07 1.078-.174 1.61-.3a16.162 16.162 0 0 0 2.77-.922c.788-.344 1.5-.839 2.172-1.378 1.39-1.016 2.594-2.314 3.646-3.663a27.456 27.456 0 0 0 1.714-2.457c.912-1.476 1.69-3.008 2.476-4.553.285-.458.545-.927.783-1.405-1.536-.453-3.087-.822-4.715-.848-1.088-.018-1.088-1.709 0-1.691 1.868.03 3.634.466 5.389.986.086-.227.168-.456.243-.688.21-.484.383-.98.526-1.483l.254-.685c.19-.791.38-1.583.572-2.376.383-1.268.685-2.555.907-3.859.186-.858.329-1.723.427-2.598.295-2.119.536-4.235.553-6.378a44.197 44.197 0 0 0-.253-3.952 30.383 30.383 0 0 0-.305-2.661c-.181-1.311-.361-2.608-.663-3.902l-.678-2.625a50.354 50.354 0 0 0-1.997-5.36c-.042-.109-.256-.35-.384-.353-.097-.002-.233.087-.188.206l.012.033c-.044-.099-.086-.201-.131-.3-.038-.093-.185-.279-.3-.277-.006 0-.012 0-.021.002a.485.485 0 0 0 .085-.08c.758-.898 1.251-2.08 1.794-3.119.45-.859.874-1.763.997-2.733.107-.852-.038-1.691-.573-2.38-.608-.784-1.753-1.152-1.117-2.285.722-1.289 1.785-2.407.726-3.872-.538-.746-1.392-1.156-2.026-1.805-.729-.75-1.075-1.754-1.056-2.779.044.026.103.013.125-.051.612-1.851.169-3.884-.459-5.687-.342-.978-1.067-1.247-1.91-1.295 3.651-7.133 7.067-14.381 10.112-21.795.101-.243.2-.486.299-.729.148-.364-.164-.847-.526-.928-2.632-.577-5.374-.761-8.055-1.014Z" clip-rule="evenodd"/><path fill="#fff" fill-rule="evenodd" d="M164.761 68.575c-.469-1.185-1.299-2.674-2.686-2.733-1.073-3.281-3.741-6.623-7.451-6.534-10.89-11.141-24.601-10.616-38.935-8.258-7.563 1.404-15.242 4.151-20.882 9.573-6.756 6.383-9.386 17.521-4.096 25.593-4.572 2.451-4.66 8.267-2.705 12.465-2.35 1.625-2.494 5.572.153 6.812a2.405 2.405 0 0 0 .227 1.685c-1.312 1.093-3.02 1.9-4.432 2.594a2.086 2.086 0 0 0-1.134 1.372c-4.636 3.042-16.196 10.478-16.058 16.396-.068 3.087 2.221 5.119 5.003 5.928-1.655 3.311-2.912 7.177-1.327 10.748.438 1.079 3.72 4.25 3.885 4.309.289.248 4.996-1.915 7.284-3.017.444 2.887 3.53 4.399 6.19 3.41 2.522-.761 4.073-2.897 5.663-4.84 2.112 4.608 8.325 4.661 12.34 2.674 3.606-1.666 6.348-4.721 7.875-8.401 8.108 3.971 17.596 5.128 26.405 3.542.566 1.001 1.817 1.674 2.932 1.286 4.685-1.409 9.865-1.488 13.836-4.716 8.277-5.943 8.974-16.9 8.397-26.24-.512-9.313-.064-18.703-1.756-27.915.734-2.713 1.955-5.11 3.086-7.659 1.228-2.671 1.202-6.643-1.814-8.074Z" clip-rule="evenodd"/><path fill="#000" fill-rule="evenodd" d="M87.805 108.105c.488-.123.75.533.336.797-2.63 1.673-5.345 3.167-7.885 4.987-2.415 1.73-4.646 3.701-6.727 5.82l-.23.236c-1.881 1.936-3.965 4.399-3.986 7.254-.016 2.22 1.695 4.643 4.081 4.351.9-.11 1.726 1.031 1.412 1.854l-.33.867c-1.328 3.51-2.679 7.486-1.63 11.178l.039.132c.253.845.52 1.593 1.502 1.576.91-.016 1.857-.323 2.71-.617 1.768-.608 3.37-1.623 4.731-2.899 1.203-1.129 2.74.018 2.579 1.452l-.006.046c-.222 1.61 2.342 2.357 3.507 2.127 2.301-.455 3.942-2.761 5.248-4.52.628-.844 2.154-1.177 2.706 0 1.093 2.333 3.347 4.076 5.984 4.149 1.37.038 2.684-.352 3.844-1.075a6.912 6.912 0 0 0 1.285-1.045l.097-.1c.574-.61.971-.934 1.705-1.332.723-.392 1.658.094 1.654.95-.006 1.108-.331 1.844-1.094 2.648a10.155 10.155 0 0 1-2.172 1.716c-1.586.938-3.472 1.465-5.319 1.404-2.91-.096-5.69-1.547-7.49-3.805-1.84 2.2-4.12 4.221-7.084 4.166-2.22-.04-4.288-1.196-5.279-2.986a16.318 16.318 0 0 1-4.576 2.211l-.146.044c-2.325.677-5 .946-6.497-1.363-1.405-2.168-1.51-5.17-1.188-7.647.288-2.214.969-4.315 1.75-6.389-2.225-.664-3.952-2.755-4.545-5.009-.898-3.408.843-6.714 2.996-9.246 2.338-2.751 5.28-5.078 8.245-7.114 2.957-2.031 6.27-3.94 9.773-4.818Zm76.029-26.658c.005-.095.161-.128.175-.024 1.021 7.414 1.613 14.813 2.102 22.277.248 3.782.53 7.56.839 11.337.296 3.622.788 7.34.677 10.977-.174 5.694-2.939 10.325-7.471 13.657-4.343 3.193-9.731 4.772-15.017 5.439-3.07.387-6.183.406-9.256.042-1.596-.189-3.19-.441-4.754-.819l-.676-.169c-1.231-.314-2.606-.741-2.781-2.2-.085-.707.29-1.228.896-1.582.79-.463 1.696-.191 2.51.02 1.371.355 2.758.66 4.16.871 3.011.453 6.106.48 9.133.166 5.091-.528 10.462-2.18 14.387-5.592 1.706-1.482 3.189-3.288 3.969-5.434 1.003-2.759.855-5.769.821-8.658-.078-6.718-.009-13.436-.102-20.154-.094-6.74-.012-13.425.388-20.154Zm-51.198-31.395c5.949-1.535 11.986-1.934 18.097-1.472 5.763.436 12.328 1.726 17.034 5.272.229.172.092.497-.191.452-3.146-.502-6.214-1.414-9.347-2.018-3.013-.58-6.081-1.017-9.149-1.118-10.378-.342-21.926 2.01-30.294 8.483-3.924 3.035-6.919 7.116-8.11 11.971-1.223 4.98-.561 10.366 1.893 14.87.353.65.208 1.675-.53 2.02-2.237 1.049-3.83 3.37-3.796 5.875.017 1.215.436 2.38 1.108 3.385.712 1.062 1.795 1.805 2.59 2.797.314.39.326.928.078 1.288.465.204.967.313 1.425.554.389.205.4.843 0 1.044-1.01.509-2.101-.031-2.783-.852a3.861 3.861 0 0 1-.323-.454c-.816-.173-1.547-.583-2.186-1.143-1.217.729-1.384 2.351-.338 3.591.534.633 1.292 1.024 2.059 1.305l.092.033c.746.265 1.429.413 1.913 1.01.32-.666.687-1.295 1.096-1.867 1.487-2.081 3.773-3.928 6.486-3.693 2.124.183 3.965 1.705 4.401 3.804.032.155-.202.277-.272.115-1.019-2.378-4.245-2.466-6.166-1.226-2.26 1.457-3.495 4.204-3.99 6.762-.488 2.519-.206 5.584 1.68 7.5a5.078 5.078 0 0 0 2.915 1.47c.536.07 1.008.001 1.52-.102l.34-.071c.235-.049.469-.088.715-.066l.368.049.209.098c.182.082.165.059-.049-.067.625-.051.948.411.982.917.02.013.039.027.056.046 2.371 2.904 4.132 6.241 6.649 9.05l.737.823c1.894 2.107 4.056 4.392 6.629 5.486l.306.127c.749.316 1.501.749 1.596 1.652.086.808-.552 1.417-1.286 1.605-1.673.43-3.58-1.058-4.805-2.033-2.634-2.098-4.849-4.772-6.677-7.586l-.181-.28c-1.503-2.348-2.916-5.026-3.355-7.814l-.079.129-.013.02c-.09.122-.189.224-.303.323-.308.266-.683.421-1.073.526-.731.198-1.534.236-2.286.16a8.041 8.041 0 0 1-4.163-1.686c-3.677-2.884-4.111-8.252-2.624-12.607-1.22.291-2.61-.53-3.563-1.234-1.093-.808-1.994-1.974-2.209-3.346-.214-1.361.654-3.163 1.94-3.688-1.335-1.604-2.112-3.88-2.192-5.701-.14-3.17 1.544-6.166 4.128-7.895-2.43-5.21-2.899-11.254-1.262-16.786 3.247-10.977 14.124-17.116 24.553-19.807Zm-9.257 83.404.03-.097c.259-.849.593-2.537 1.861-1.894 1.211.614.438 2.431.015 3.316-.507 1.058-1.383 1.907-2.558 2.135-.956.184-2.006-.053-2.675-.792-.195-.216-.305-.452-.42-.713a1.005 1.005 0 0 1-.075-.216.471.471 0 0 1-.122.211 10.766 10.766 0 0 0-1.425 1.952c-.091.163-.38.049-.307-.129.45-1.104.375-2.811 1.38-3.609.887-.704 1.719-.15 2.188.67l.024.042c.685 1.245 1.777.063 2.084-.876Zm-9.64-3.988.092-.129c.947-1.295 2.545-2.854 4.144-1.649.509.384.528 1.023 0 1.403l-.199.143c-.699.495-1.394.963-1.907 1.674-.558.772-1.058 1.59-1.808 2.196-1.326 1.072-3.468 1.283-4.619-.162l-.113-.143a4.466 4.466 0 0 1-.296-.422l-.07.096-.019.028-.016.025a6.047 6.047 0 0 1-1.814 1.869c-1.414.933-3.007 1.063-4.606.569-.157-.049-.115-.258.037-.272 1.895-.177 3.742-1.524 4.512-3.259l.087-.195c.312-.69.662-1.345 1.433-1.616.75-.264 1.538.015 2.052.582.43.475.54 1.418 1.317 1.21.85-.228 1.328-1.292 1.792-1.948Zm-5.429-11.523c.42-.32 1.078.023 1.193.485.524 2.094-1.651 4.561-3.742 4.626a3.09 3.09 0 0 1-1.532-.363c-.37-.193-.807-.687-1.213-.769-.524-.105-.989.593-1.358.952-.457.444-.91.857-1.423 1.237-.205.151-.523-.103-.437-.336l.174-.463c.628-1.646 1.71-4.05 3.734-3.367.992.335 1.739 1.464 2.783.57.837-.716.915-1.883 1.821-2.572Zm8.933-8.429c1.887-2.167 6.323-1.022 7.164 1.614.186.582-.008 1.339-.462 1.751-.599.543-1.454.708-2.181.282-.626-.366-.882-.966-1.342-1.48-.675-.753-1.593-1.172-2.538-1.471a2.708 2.708 0 0 0-.654.484c-.1.101-.291-.037-.202-.156.122-.161.27-.313.44-.454l-.081-.023c-.25-.07-.303-.364-.144-.547Zm12.265-23.928c.423 0 .915.398.861.862l-.016.129c-.122.883-.406 1.383-1.289 1.794a7.11 7.11 0 0 1-2.36.615c-.311.03-.64.03-.973.006l-.071.406c-.139.81-.268 1.622-.292 2.448-.046 1.532.526 2.795 1.139 4.163 1.176 2.627 1.309 5.25.028 7.874-.188.383-.718.696-1.146.657-.555-.05-.823-.211-1.146-.657-.271-.375-.209-.905-.022-1.297l.022-.043c.645-1.251.849-2.665.519-4.04-.31-1.292-1.011-2.454-1.325-3.742-.51-2.099.034-4.18 1.096-5.981-.802-.231-1.543-.643-2.038-1.27l.002-.002c-.189-.201-.086-.623.246-.598l.374.03c1.073.09 2.06.184 3.144-.115.556-.154 1.036-.41 1.513-.72l.102-.067c.597-.397.928-.453 1.632-.452Zm2.566-15.511c2.689-.153 4.984 1.621 6.099 3.984 1.212 2.565.704 5.508-.366 8.031l-.304.707c-.532 1.223-1.23 2.678-2.32 3.335-1.223.738-2.281-.118-1.92-1.477.215-.81.797-1.435 1.268-2.103.439-.624.849-1.27 1.209-1.944.704-1.321 1.23-2.793 1.224-4.307-.009-2.763-1.834-5.93-4.89-5.89-.218.003-.214-.324 0-.336Zm13.596-4.459c-.167-.127-.018-.41.17-.29 3.117 1.983 5.445 5.708 5.913 9.368.26 2.03.062 4.2-.803 6.075-.496 1.075-1.347 2.102-2.537 2.397a2.15 2.15 0 0 1-2.561-1.423c-.131-.414.095-.848.437-1.074 1.109-.734 2.002-1.66 2.525-2.905.544-1.294.76-2.669.767-4.065.016-3.27-1.289-6.09-3.911-8.083Zm38.079 1.418c-.144-.16.037-.396.228-.296 2.254 1.186 3.686 3.457 4.096 5.944.402 2.435-.139 5.75-2.023 7.512-1.063.994-2.968-.328-2.084-1.609.623-.903 1.297-1.647 1.654-2.714.318-.952.43-1.912.413-2.913-.038-2.182-.817-4.297-2.284-5.924Zm-27.553-3.05c3.85-.183 6.184 4.214 6.718 7.491.33 2.025.082 4.11-1.036 5.867l-.066.102c-.922 1.403-2.598 3.019-4.405 2.355-.764-.281-.968-1.1-.454-1.722.786-.952 2-1.34 2.739-2.356.83-1.14 1.101-2.567 1.053-3.952l-.006-.153c-.129-2.549-1.344-7.44-4.543-7.354-.18.004-.177-.27 0-.278Zm12.043-.73c3.724-.477 5.992 3.906 6.692 6.926.437 1.887.532 3.993-.027 5.866l-.041.134c-.455 1.398-1.797 3.794-3.549 3.08-.48-.197-.97-.73-.74-1.305.293-.734.717-.925 1.281-1.395.435-.362.739-.882.962-1.394.596-1.364.728-2.958.647-4.428l-.011-.174c-.211-2.872-1.767-7.151-5.214-7.073-.157.004-.147-.219 0-.237Zm6.819-4.12c2.072-.79 3.77 1.192 4.962 2.607 1.493 1.773 2.847 3.683 3.612 5.89.682 1.967.802 4.154.188 6.155a8.178 8.178 0 0 1-1.424 2.72l-.083.102c-.673.82-1.322 1.325-2.425 1.031-.448-.12-.638-.563-.56-.987.166-.906.633-1.141 1.237-1.774.533-.557.929-1.244 1.195-1.967.548-1.49.577-3.103.208-4.638-.412-1.719-1.222-3.305-2.161-4.792l-.202-.319c-.994-1.571-2.411-3.992-4.508-3.737-.18.022-.182-.238-.039-.292Z" clip-rule="evenodd"/><path fill="#000" fill-rule="evenodd" d="M147.4 121.301c2.508 0 3.57.408 5.202 1.367 1.631.959 3.375 2.195 3.788 4.047.385 1.725-.372 3.407-2.049 4.065-.937.368-11.742 1.231-13.436 1.343-1.695.113-3.313-.026-4.401-1.155-2.812-2.918 1.093-6.701 3.588-8.098 2.229-1.248 4.8-1.569 7.308-1.569Zm-.581 1.967c-1.886 0-4.977 1.381-4.977 2.053 0 .672 9.008.005 9.201-.57.193-.575-2.337-1.483-4.224-1.483Zm1.452-15.402c1.595.97 4.026 3.232 2.31 5.637-2.02 2.121-4.929-.311-6.362-1.41-1.329-.852-2.823 1.339-1.589 2.335 10.357 7.671 14.56-6.308 6.448-7.703-.893-.153-1.225.841-.807 1.141Zm-18.015-8.792c2.717-2.007 6.782-.462 7.451 2.678.466.245.719.634.774 1.204l.014.143c.066.677-.537 1.319-1.139 1.497-.678.201-1.215.097-1.844-.191-.603-.276-.813-1.06-.704-1.656l.01-.049c.161-.74-.473-1.457-1.111-1.75-.72-.331-1.529-.124-2.155.314-.695.487-1.273 1.319-1.469 2.148l-.019.086c-.155.715-.271 2.058.423 2.469.123.072.036.239-.091.217-1.508-.258-2.406-1.166-2.415-2.789-.01-1.719.913-3.316 2.275-4.321Zm25.022-.571c2.714-.963 6.108 1.623 5.062 4.611-.686 1.962-3.341 1.175-3.094-.791l.009-.06c.157-1.023-.618-1.505-1.567-1.17-1.407.498-2.166 2.71-1.507 4.001.081.158-.145.292-.239.139l-.091-.145c-.736-1.173-1.408-2.039-1.166-3.537.223-1.381 1.28-2.583 2.593-3.048Zm-5.504-7.112c-.007-.132.132-.22.251-.19.964.242 1.838.944 2.716 1.399.959.497 1.941.898 2.982 1.192 1.014.287 2.039.43 3.094.42 1.141-.009 2.258-.437 3.377-.402 1.683.053 2.562 2.5.905 3.342-2.413 1.224-5.991.335-8.338-.683-1.889-.82-4.864-2.756-4.987-5.078Zm-12.255.56c.88-1.134 2.661-1.202 3.442.134.807 1.38-.163 2.764-1.535 3.05-2.503 1.119-5.067 1.976-7.801 2.331l-.37.047c-2.38.29-5.383.447-7.534-.65-.21-.109-.146-.43.064-.49 1.213-.347 2.57-.346 3.817-.574 1.186-.216 2.362-.455 3.517-.806 2.281-.693 4.443-1.683 6.4-3.042Z" clip-rule="evenodd"/></svg>