<?xml version="1.0" encoding="utf-8"?>
<!-- Generator: Adobe Illustrator 19.0.0, SVG Export Plug-In . SVG Version: 6.00 Build 0)  -->
<svg version="1.1" id="layer" xmlns="http://www.w3.org/2000/svg" xmlns:xlink="http://www.w3.org/1999/xlink" x="0px" y="0px"
	 viewBox="-153 -46 652 652" style="enable-background:new -153 -46 652 652;" xml:space="preserve">
<style type="text/css">
	.st0{fill-rule:evenodd;clip-rule:evenodd;fill:#00A1DE;}
	.st1{fill:#D32617;}
	.st2{fill:#0E3079;}
</style>
<path class="st0" d="M251.4,283.4c0-4,0-12.7,0-16v-1.2c0-1.6,1.2-2.9,2.8-2.9h7.5c1.5,0,2.8,1.3,2.8,2.9v11.6v40.2
	c0,11.1-8.3,19.4-19.1,19.4c-10.5,0-18.8-8.5-18.8-19.4v-16.1c0-10.7,8.4-19.4,18.8-19.4C247.6,282.5,249.5,282.7,251.4,283.4
	 M344.4,275.8c-1.5,0-2.8-1.3-2.8-2.9v-6.7c0-1.6,1.2-2.9,2.8-2.9h7.5c1.5,0,2.8,1.3,2.8,2.9v6.7c0,1.6-1.2,2.9-2.8,2.9H344.4z
	 M274,275.8c-1.5,0-2.8-1.3-2.8-2.9v-6.7c0-1.6,1.2-2.9,2.8-2.9h7.5c1.5,0,2.8,1.3,2.8,2.9l0,6.7c0,1.6-1.2,2.9-2.8,2.9H274z
	 M292.7,324.3c1.5,0,2.8,1.3,2.8,2.9v7.2c0,1.6-1.2,2.9-2.8,2.9h-2.4c-1.5,0-2.9-0.2-4.3-0.5c-8.7-1.9-14.7-9.7-14.7-18.9v-31.6
	c0-1.6,1.2-2.9,2.8-2.9h7.5c1.5,0,2.8,1.3,2.8,2.9l0,31.6c0,3.5,2.6,6.4,6,6.4H292.7z M363.1,324.3c1.5,0,2.8,1.3,2.8,2.9v7.2
	c0,1.6-1.2,2.9-2.8,2.9h-2.4c-1.5,0-2.9-0.2-4.3-0.5c-8.7-1.9-14.7-9.7-14.7-18.9v-31.6c0-1.6,1.2-2.9,2.8-2.9h7.5
	c1.5,0,2.8,1.3,2.8,2.9v31.6c0,3.5,2.5,6.4,6,6.4H363.1z M466.2,324.3c1.5,0,2.8,1.3,2.8,2.9v7.2c0,1.6-1.2,2.9-2.8,2.9h-2.4
	c-1.5,0-2.9-0.2-4.3-0.5c-8.7-1.9-14.7-9.7-14.7-18.9v-51.8c0-1.6,1.2-2.9,2.8-2.9h7.5c1.5,0,2.8,1.3,2.8,2.9v51.8
	c0,3.5,2.5,6.4,6,6.4H466.2z M385.1,296.2v21.7c0,3.5,2.5,6.4,5.9,6.4h2.4c1.5,0,2.8,1.3,2.8,2.9v7.2c0,1.6-1.2,2.9-2.8,2.9H391
	c-1.5,0-2.9-0.2-4.4-0.5c-8.6-2-14.6-9.8-14.6-18.9c0-7.3,0-14.5,0-21.8c-1.1,0-2.5,0-3.3,0h-0.5c-1.5,0-2.8-1.3-2.8-2.9v-6.9
	c0-1.6,1.3-2.9,2.8-2.9c1.2,0,2.5,0,3.7,0c0-2.4,0-7.1,0-9.4v-1.2c0-1.6,1.2-2.9,2.8-2.9h7.5c1.5,0,2.8,1.3,2.8,2.9v10.6h8.3
	c1.5,0,2.8,1.3,2.8,2.9v6.9c0,1.6-1.2,2.9-2.8,2.9C393.4,296.2,387.8,296.2,385.1,296.2 M424.4,299.5c-0.8-2.3-2.8-4.1-5.4-4.1
	c-2.7,0-4.9,0.5-7.2,1.9l-1.4,0.8c-1.3,0.8-3,0.3-3.8-1.1l-3.4-6.2l-0.4-1.4l0.1-0.8l1.3-1.7l1.3-0.7l0.3-0.2
	c4.2-2.3,8.4-3.5,13.2-3.5c10.5,0,18.8,8.5,18.8,19.4v31.6c0,1.6-1.3,2.9-2.8,2.9h-5.4l-2.4-0.8c-2.5,1.3-5.5,1.9-8.2,1.9
	c-10.6,0-19.1-8.4-19.1-19.4c0-11.1,8.3-19.4,19.1-19.4C420.9,298.6,422.6,299,424.4,299.5 M304.7,342.2c2.7,2.3,5.8,3.3,9.3,3.3
	c2.6,0,6.9-0.7,6.9-4.2c0-3.5-4.3-4.1-6.9-4.1h-7.6c-1.5,0-2.8-1.3-2.8-2.9v-15.1l-0.1-0.8c-5.1-4.3-7.6-8.8-7.6-15.8
	c0-11,8.6-19.3,19.1-19.3c1.6,0,3,0.1,4.5,0.6l0.8,0.1l0.9-0.5c2.8-1.7,5.1-2.6,8.4-2.6h1.7c1.5,0,2.8,1.3,2.8,2.9v7.3
	c0,1.4-1,2.6-2.4,2.8l0.1,0.3l0.1,0.2c1.3,2.6,1.8,5.4,1.8,8.3c0,10.4-7.3,18.5-17.2,19.3l0,2.7c9.4,0.5,17.3,6,17.3,16.6
	c0,11.4-9.6,17-19.8,17c-5.3,0-12-2-16.2-5.5l-1.4-1.1c-1-0.9-1.3-2.4-0.7-3.6l3.4-6.2l1.9-1.4l2.3,0.5L304.7,342.2 M251.5,317.9
	v-16.1c0-3.5-2.4-6.4-5.9-6.4c-3.5,0-5.9,2.9-5.9,6.4v16.1c0,3.3,2.5,6.4,5.8,6.4C249.2,324.3,251.5,321.5,251.5,317.9 M419,324.3
	c3.6,0,5.8-2.9,5.8-6.4c0-3.3-2.5-6.4-5.8-6.4c-3.5,0-6,2.8-6,6.4C413,321.4,415.5,324.3,419,324.3 M314.9,309.2
	c3.5,0,5.8-2.9,5.8-6.4c0-3.6-2.3-6.4-5.9-6.4c-3.5,0-5.9,2.9-5.9,6.4C308.9,306.3,311.5,309.2,314.9,309.2"/>
<g>
	<path class="st1" d="M-114.9,312.7v23.7H-131v-70.2c6.8-0.4,13.6-0.5,20.4-0.5c16.1,0,25.2,6.7,25.2,20.6c0,5.3-1.7,9.9-5.1,13.6
		c-2.7,3-6,5-9.9,6.1c1.4,2,2.6,3.6,3.5,4.9l17.6,25.4h-20 M-111.9,280l-3,0.1v15.6l2.6,0c5.1,0,10.1-2.2,10.1-8.2
		C-102.2,282.7-104.8,280-111.9,280"/>
</g>
<path class="st1" d="M-35.5,312.3l-0.2,1.7h-29c0.5,6.6,4,9.7,11.1,9.7c6,0,10.1-1.5,15.4-4l1.6,13.9c-6.5,2.6-12,3.8-19,3.8
	c-16.7,0-25.3-9.3-25.3-26.9c0-8,2.1-14.7,6.4-19.9c4.3-5.4,10.3-8,17.7-8c7,0,12.7,2.3,16.6,7.1c3.5,4.3,5.2,10,5.2,16.7
	C-35.1,308.4-35.3,310.3-35.5,312.3 M-52.7,297.6c-1-1.3-2.5-2-4.7-2c-3.6,0-6,2.4-7,5.8h13.2C-51.3,299.8-51.9,298.6-52.7,297.6"/>
<path class="st1" d="M-27.4,336.4v-73.8c4.1,6.8,9.7,12.3,16,16.4v57.4"/>
<rect x="-1.4" y="283.6" class="st1" width="16" height="52.8"/>
<path class="st1" d="M49.2,332.5l-2.6,2c-3,1.9-6.5,2.8-10.3,2.8c-4.6,0-8.4-1.2-11.3-4c-2.8-2.7-4.1-6.5-4.1-10.9
	c0-6.4,2.9-11.5,8.5-15c4.9-3,11.2-4.6,18.8-4.8V302c0-3.7-1.9-5.8-7.3-5.8c-6.3,0-10.3,2-15.6,5.1l-1.5-15c6.4-2.4,12.2-3.7,19-3.7
	c7.4,0,13.2,1.5,16.8,5.1c3.2,3.1,4.6,7.9,4.6,13.9v20.4c0,4.9,0.1,9.7,0.4,14.5H49.2v-2L49.2,332.5 M48.2,314.8
	c-9.3,0.3-11.9,2.9-11.9,5.8c0,2.2,0.8,3.3,3.7,3.3c2.3,0,4.2-1,5.9-3C47.3,319.1,48,317.1,48.2,314.8"/>
<path class="st1" d="M89,288.9c2.2-4.2,7.3-6.4,13.7-6.4c10.6,0,16,6.2,16,17.6v36.3h-15.9v-33.2c0-5-1.6-6.2-3.9-6.2
	c-2.3,0-4.4,1.1-6.3,3.9c-1.9,2.7-2.9,6-2.9,10v25.6h-16v-52.8h15.3v2C89.1,286.7,89,287.9,89,288.9"/>
<path class="st1" d="M150,337.3c-15.4,0-23.2-8.9-23.2-25.7c0-8.3,2.1-15.2,6.5-20.5c4.7-5.7,11.4-8.4,19.9-8.4
	c4.3,0,7.7,0.7,11.8,1.9l-1.7,15c-3.3-1.3-6.6-2.5-10.2-2.5c-7.6,0-9.7,6.4-9.7,13.2c0,8.7,3.2,12.1,9.3,12.1c4.8,0,7-1,11-3.2
	l1.3,15.1C159.8,336.4,155.6,337.3,150,337.3"/>
<path class="st1" d="M215.4,312.3l-0.2,1.7h-29c0.5,6.6,4,9.7,11.1,9.7c6,0,10.1-1.5,15.4-4l1.6,13.9c-6.5,2.6-12,3.8-19,3.8
	c-16.7,0-25.3-9.3-25.3-26.9c0-8,2.1-14.7,6.4-19.9c4.3-5.4,10.3-8,17.7-8c7,0,12.7,2.3,16.6,7.1c3.5,4.3,5.2,10,5.2,16.7
	C215.8,308.4,215.7,310.3,215.4,312.3 M198.3,297.6c-1-1.3-2.5-2-4.7-2c-3.6,0-6,2.4-7,5.8h13.2C199.6,299.8,199,298.6,198.3,297.6"
	/>
<g>
	<path class="st2" d="M41.4,270.8c-2.9,2.2-6.8,2.6-9.8,1.1l-1.6-1.2l-15.2-20.1l-0.1,0c5.1,0.9,8.8-1.6,11.7-6.2
		c2.9-4.4,2.8-10.6,0-15c-3.2-4.8-9.6-6.3-14.9-5.6c-9.3,1.3-15.9,9.8-17.9,18.6c-2.1,10.1-0.6,19.6,2.7,28.6
		c0.8,1.9,1.8,3.9,3.1,5.5c-9.7-4.4-18.3-12.4-22.8-23.3c-5-11.7-4.9-26.4,1-38.2c4.7-9.1,12.9-17.6,23.1-21.2
		c10.7-4.5,25.1-3.6,35.5,2.5c12.7,6.5,22.2,22.7,22.3,37.2C58.9,248.5,52.5,262.1,41.4,270.8"/>
</g>
<path class="st1" d="M6.2,276.4c-4.7-5.3-8.5-12.1-5.6-19.2c2.5-5.4,4.8-11,5.9-17.3c0.4,6.5,4.3,12.4,6.1,18.7
	c0.7,3,0.8,6.2-0.4,9.3c-1.2,3.4-3.2,6.3-5.6,9"/>
</svg>
